<?xml version="1.0" standalone="no"?>
<!DOCTYPE svg PUBLIC "-//W3C//DTD SVG 20010904//EN"
 "http://www.w3.org/TR/2001/REC-SVG-20010904/DTD/svg10.dtd">
<svg version="1.0" xmlns="http://www.w3.org/2000/svg"
 width="340.000000pt" height="338.000000pt" viewBox="0 0 340.000000 338.000000"
 preserveAspectRatio="xMidYMid meet">

<g transform="translate(0.000000,338.000000) scale(0.100000,-0.100000)"
fill="#000000" stroke="none">
<path d="M1882 3350 c-33 -31 -27 -61 33 -179 30 -60 55 -113 55 -118 0 -6
-22 -13 -49 -17 -112 -15 -343 -109 -457 -186 -131 -89 -259 -214 -335 -329
-48 -72 -61 -108 -36 -98 6 3 55 24 107 47 115 51 401 158 453 169 20 5 37 6
37 2 0 -4 -16 -40 -36 -80 -80 -162 -122 -326 -131 -512 -8 -152 18 -340 50
-361 7 -4 19 18 33 55 81 233 222 508 362 707 51 73 160 200 171 200 26 0 135
-370 190 -645 56 -279 100 -651 101 -851 0 -20 7 -21 108 -27 116 -7 210 -25
309 -60 34 -12 64 -19 67 -16 5 5 -10 102 -45 299 -61 334 -200 769 -349 1095
-57 124 -92 199 -107 229 l-15 29 83 -6 c151 -12 430 -79 599 -143 36 -14 116
-48 178 -76 62 -28 115 -48 118 -45 15 14 -127 197 -222 286 -161 150 -304
230 -532 297 -7 2 -11 8 -8 13 18 28 325 171 499 231 43 15 83 32 88 37 15 15
-35 29 -146 42 -304 36 -579 -21 -827 -170 -37 -23 -71 -39 -76 -37 -5 1 -47
53 -92 113 -46 61 -88 113 -94 117 -21 14 -62 8 -84 -12z"/>
<path d="M2338 984 c-248 -45 -490 -214 -621 -435 l-37 -64 97 -6 c54 -4 121
-14 148 -22 60 -19 158 -77 201 -118 35 -34 86 -51 123 -43 14 4 48 24 74 46
117 97 225 138 365 138 132 0 249 -46 364 -143 41 -34 55 -40 92 -40 26 0 54
7 68 16 78 57 101 69 137 74 23 3 41 10 41 15 0 19 -70 146 -112 203 -222 301
-578 445 -940 379z"/>
<path d="M958 810 c-149 -37 -306 -134 -405 -252 -52 -62 -140 -214 -129 -225
3 -3 21 8 40 24 71 63 217 112 333 113 118 0 238 -45 342 -129 52 -42 70 -51
103 -51 45 0 83 17 118 55 13 14 40 35 58 47 24 15 46 46 84 122 27 55 62 116
76 135 25 33 25 34 6 49 -41 31 -183 93 -258 112 -104 26 -260 26 -368 0z"/>
<path d="M682 335 c-69 -15 -112 -38 -183 -97 -121 -99 -244 -104 -363 -13
-18 14 -44 25 -57 25 -38 -1 -70 -31 -71 -68 -1 -45 39 -84 131 -130 70 -35
81 -37 165 -37 114 1 172 22 281 105 89 66 148 86 223 75 58 -9 84 -22 155
-80 32 -25 83 -58 115 -73 50 -24 69 -27 157 -27 88 0 107 3 158 27 32 15 79
46 105 69 74 65 116 83 197 83 80 1 115 -13 190 -76 28 -22 79 -55 115 -72 58
-27 75 -31 155 -31 113 1 171 22 280 105 146 110 254 106 392 -13 77 -66 147
-91 258 -91 117 0 190 27 257 94 53 52 58 74 27 114 -27 34 -65 34 -110 0 -58
-44 -110 -64 -172 -64 -73 0 -110 15 -207 89 -118 89 -213 113 -338 87 -78
-16 -120 -37 -192 -97 -64 -54 -125 -79 -190 -79 -66 0 -120 23 -198 84 -76
58 -125 82 -201 96 -113 20 -224 -11 -324 -92 -83 -67 -129 -88 -200 -88 -73
0 -112 16 -202 86 -118 90 -227 118 -353 89z"/>
</g>
</svg>
